<svg width="35" height="35" viewBox="0 0 35 35" fill="none" xmlns="http://www.w3.org/2000/svg">
<path d="M33.2656 25.6801C33.2653 25.6801 33.2653 25.6801 33.2656 25.6801L27.4159 21.836C26.0232 20.921 24.2157 21.0006 22.9176 22.0335C21.7804 22.9384 20.1485 22.8459 19.121 21.8183L13.1817 15.879C12.1544 14.8518 12.0619 13.2195 12.9666 12.0827C13.9997 10.7843 14.079 8.97643 13.164 7.58407L9.31989 1.73435C8.64773 0.711517 7.60515 0.0994644 6.384 0.0107655C5.16284 -0.0773441 4.04306 0.377643 3.23063 1.29292C-1.27208 6.3632 -1.04135 14.0924 3.75575 18.8892L16.1108 31.2446C18.6067 33.7405 21.8962 35 25.1925 35C28.231 35 31.275 33.9294 33.7073 31.7697C34.6223 30.957 35.0776 29.8369 34.9892 28.616C34.9005 27.3952 34.2884 26.3526 33.2656 25.6801ZM32.2044 30.0777C28.0285 33.7862 21.662 33.5958 17.7106 29.6445L5.35556 17.2894C1.4042 13.338 1.21384 6.97142 4.92238 2.7955C5.23651 2.44159 5.62755 2.26272 6.08696 2.26272C6.13057 2.26272 6.17507 2.26449 6.22045 2.26773C6.73732 2.30515 7.14398 2.54384 7.42864 2.97732L11.2727 8.82674C11.6552 9.40903 11.6249 10.1339 11.1958 10.6735C9.57391 12.7118 9.73981 15.6374 11.5816 17.4792L17.5208 23.4185C19.3626 25.2602 22.2882 25.4261 24.3265 23.8042C24.866 23.3748 25.5909 23.3448 26.1729 23.7273L32.0226 27.5714C32.4558 27.8561 32.6945 28.2627 32.7319 28.7796C32.7696 29.2967 32.592 29.7335 32.2044 30.0777Z" fill="#38434A"/>
</svg>
