<svg width="58" height="58" viewBox="0 0 58 58" fill="none" xmlns="http://www.w3.org/2000/svg">
<g clip-path="url(#clip0_41_650)">
<path d="M29 58C45.0163 58 58 45.0163 58 29C58 12.9837 45.0163 0 29 0C12.9837 0 0 12.9837 0 29C0 45.0163 12.9837 58 29 58Z" fill="#039BE5"/>
<path d="M13.2698 28.3717L41.2307 17.5909C42.5284 17.1221 43.6618 17.9075 43.2413 19.8698L43.2437 19.8674L38.4829 42.2965C38.1301 43.8867 37.1852 44.2733 35.8632 43.5242L28.6132 38.1809L25.1163 41.5498C24.7296 41.9364 24.4034 42.2627 23.6542 42.2627L24.169 34.8846L37.6056 22.7457C38.1905 22.2309 37.4751 21.9409 36.7042 22.4533L20.0993 32.9078L12.9412 30.6748C11.3872 30.1818 11.3534 29.1208 13.2698 28.3717Z" fill="white"/>
</g>
<defs>
<clipPath id="clip0_41_650">
<rect width="58" height="58" fill="white"/>
</clipPath>
</defs>
</svg>
