<svg width="41" height="41" viewBox="0 0 41 41" fill="none" xmlns="http://www.w3.org/2000/svg">
<g clip-path="url(#clip0_41_671)">
<path d="M20.5 41C9.19585 41 0 31.8042 0 20.5C0 9.19585 9.19585 0 20.5 0C31.8042 0 41 9.19585 41 20.5C41 31.8042 31.8042 41 20.5 41ZM20.5 2.5625C10.6088 2.5625 2.5625 10.6088 2.5625 20.5C2.5625 30.3912 10.6088 38.4375 20.5 38.4375C30.3912 38.4375 38.4375 30.3912 38.4375 20.5C38.4375 10.6088 30.3912 2.5625 20.5 2.5625Z" fill="#38434A"/>
<path d="M29.4688 31.604C29.1406 31.604 28.8128 31.4792 28.5632 31.2281L19.5944 22.2593C19.3536 22.0184 19.2188 21.6922 19.2188 21.354V9.39551C19.2188 8.68826 19.7927 8.11426 20.5 8.11426C21.2073 8.11426 21.7812 8.68826 21.7812 9.39551V20.8226L30.3743 29.4157C30.8748 29.9162 30.8748 30.7276 30.3743 31.2281C30.1247 31.4792 29.7969 31.604 29.4688 31.604Z" fill="#38434A"/>
</g>
<defs>
<clipPath id="clip0_41_671">
<rect width="41" height="41" fill="white"/>
</clipPath>
</defs>
</svg>
