<svg width="58" height="58" viewBox="0 0 58 58" fill="none" xmlns="http://www.w3.org/2000/svg">
<g clip-path="url(#clip0_41_653)">
<path d="M29 58C45.0163 58 58 45.0163 58 29C58 12.9837 45.0163 0 29 0C12.9837 0 0 12.9837 0 29C0 45.0163 12.9837 58 29 58Z" fill="#4D76A1"/>
<path fill-rule="evenodd" clip-rule="evenodd" d="M27.9046 41.7191H30.1808C30.1808 41.7191 30.8683 41.6436 31.2193 41.2652C31.5424 40.9178 31.5321 40.2654 31.5321 40.2654C31.5321 40.2654 31.4876 37.2113 32.9051 36.7615C34.3024 36.3185 36.0968 39.7133 37.9986 41.0186C39.4368 42.0065 40.5296 41.7899 40.5296 41.7899L45.6149 41.7191C45.6149 41.7191 48.2751 41.5552 47.0138 39.4636C46.9104 39.2925 46.2792 37.9164 43.2328 35.0887C40.0442 32.1291 40.4712 32.6078 44.3122 27.4884C46.6514 24.3707 47.5865 22.4673 47.2945 21.652C47.0158 20.8756 45.2954 21.0808 45.2954 21.0808L39.5696 21.1165C39.5696 21.1165 39.1452 21.0586 38.8304 21.2468C38.5228 21.4313 38.3248 21.8614 38.3248 21.8614C38.3248 21.8614 37.4186 24.274 36.21 26.3258C33.6604 30.6553 32.6409 30.8838 32.2243 30.615C31.255 29.9884 31.4969 28.0979 31.4969 26.7549C31.4969 22.5593 32.1333 20.8099 30.2578 20.3571C29.6354 20.2066 29.1774 20.1074 27.5857 20.0914C25.5427 20.0702 23.8135 20.0976 22.8343 20.5773C22.183 20.8963 21.6805 21.6071 21.9865 21.6479C22.365 21.6986 23.2221 21.879 23.6765 22.4978C24.2632 23.296 24.2425 25.0887 24.2425 25.0887C24.2425 25.0887 24.5796 30.0277 23.4552 30.6413C22.6834 31.0621 21.6247 30.203 19.3516 26.2751C18.1869 24.2632 17.3076 22.0392 17.3076 22.0392C17.3076 22.0392 17.138 21.6236 16.8356 21.4013C16.4686 21.132 15.9558 21.0462 15.9558 21.0462L10.5149 21.0818C10.5149 21.0818 9.69807 21.1046 9.39824 21.4597C9.13149 21.7756 9.37704 22.429 9.37704 22.429C9.37704 22.429 13.6367 32.3948 18.4599 37.417C22.8824 42.0215 27.9046 41.7191 27.9046 41.7191Z" fill="white"/>
</g>
<defs>
<clipPath id="clip0_41_653">
<rect width="58" height="58" fill="white"/>
</clipPath>
</defs>
</svg>
