<svg width="42" height="42" viewBox="0 0 42 42" fill="none" xmlns="http://www.w3.org/2000/svg">
<g clip-path="url(#clip0_41_682)">
<path d="M37.8576 40.3594H21.0068C10.332 40.3594 1.64746 31.6748 1.64746 21C1.64746 10.3252 10.332 1.64062 21.0068 1.64062C25.2084 1.64062 29.2479 2.99225 32.5776 5.47879H31.6773C31.2243 5.47879 30.857 5.84612 30.857 6.2991C30.857 6.75207 31.2243 7.11941 31.6773 7.11941H34.7924C35.2453 7.11941 35.6127 6.75207 35.6127 6.2991V3.18404C35.6127 2.73107 35.2453 2.36373 34.7924 2.36373C34.3394 2.36373 33.972 2.73107 33.972 3.18404V4.48055C30.2837 1.58107 25.7399 0 21.0068 0C15.3975 0 10.124 2.18441 6.15754 6.1507C2.19125 10.1172 0.00683594 15.3907 0.00683594 21C0.00683594 26.6093 2.19125 31.8828 6.15754 35.8493C10.124 39.8157 15.3975 42 21.0068 42H37.8576C38.3106 42 38.6779 41.6327 38.6779 41.1797C38.6779 40.7267 38.3106 40.3594 37.8576 40.3594Z" fill="#38434A"/>
<path d="M8.88214 12.4042C8.49898 12.1626 7.99235 12.2775 7.75077 12.6608C5.8885 15.6154 5.06654 19.1659 5.43659 22.6586C5.81204 26.2035 7.40968 29.5466 9.93502 32.0721C12.9876 35.1245 16.9972 36.6507 21.0069 36.6507C25.0165 36.6507 29.0261 35.1245 32.0787 32.0721C38.1836 25.967 38.1836 16.0334 32.0787 9.92846C29.5493 7.39919 26.2008 5.80105 22.65 5.42847C19.1511 5.06105 15.5963 5.88981 12.6406 7.76127C12.2578 8.00368 12.144 8.51046 12.3863 8.89322C12.6287 9.27598 13.1355 9.38976 13.5182 9.14752C19.0028 5.67473 26.3209 6.4911 30.9185 11.0887C36.3838 16.554 36.3838 25.4467 30.9185 30.912C28.1856 33.645 24.5969 35.0114 21.0069 35.0111C17.4177 35.0107 13.8275 33.6444 11.0952 30.912C6.4331 26.25 5.62862 19.1046 9.13874 13.5357C9.38032 13.1523 9.26548 12.6457 8.88214 12.4042Z" fill="#38434A"/>
<path d="M12.2533 17.2285C10.9439 17.2285 9.87872 18.2937 9.87872 19.6031C9.87872 20.0561 10.2461 20.4234 10.699 20.4234C11.152 20.4234 11.5193 20.0561 11.5193 19.6031C11.5193 19.1983 11.8486 18.8691 12.2533 18.8691C12.9001 18.8691 12.9873 19.2401 12.9873 19.6031C12.9873 20.7894 11.2853 22.4874 10.2131 23.2786C9.92753 23.4886 9.80908 23.8583 9.91957 24.1952C10.0302 24.532 10.3446 24.7598 10.699 24.7598H13.8077C14.2607 24.7598 14.628 24.3925 14.628 23.9395C14.628 23.4865 14.2607 23.1192 13.8077 23.1192H12.8413C13.7262 22.1762 14.628 20.8978 14.628 19.6032C14.6279 18.1828 13.6736 17.2285 12.2533 17.2285Z" fill="#38434A"/>
<path d="M16.3563 17.2285C15.9033 17.2285 15.536 17.5959 15.536 18.0488V20.9967C15.536 21.4497 15.9033 21.817 16.3563 21.817H18.3654V23.9511C18.3654 24.4041 18.7327 24.7715 19.1857 24.7715C19.6386 24.7715 20.006 24.4041 20.006 23.9511V18.0489C20.006 17.5959 19.6386 17.2286 19.1857 17.2286C18.7327 17.2286 18.3654 17.5959 18.3654 18.0489V20.1765H17.1766V18.0489C17.1766 17.5959 16.8093 17.2285 16.3563 17.2285Z" fill="#38434A"/>
<path d="M22.5711 24.7602C22.8827 24.7602 23.1806 24.5817 23.3181 24.2798L26.0014 18.3891C26.1892 17.9768 26.0072 17.4904 25.595 17.3025C25.1825 17.1147 24.6963 17.2967 24.5084 17.709L21.8251 23.5997C21.6373 24.012 21.8193 24.4984 22.2315 24.6863C22.3419 24.7365 22.4575 24.7602 22.5711 24.7602Z" fill="#38434A"/>
<path d="M29.3118 24.7252C29.3904 24.7488 29.4698 24.7601 29.5478 24.7601C29.9007 24.7601 30.2265 24.5305 30.3332 24.1752L32.1004 18.2845C32.1749 18.0362 32.1276 17.7671 31.9727 17.5591C31.8179 17.3511 31.574 17.2285 31.3147 17.2285H27.7803C27.3273 17.2285 26.96 17.5959 26.96 18.0488C26.96 18.5018 27.3273 18.8691 27.7803 18.8691H30.2122L28.7618 23.7038C28.6316 24.1377 28.8779 24.595 29.3118 24.7252Z" fill="#38434A"/>
<path d="M10.5155 9.68799C10.2989 9.68799 10.0873 9.77576 9.93469 9.92842C9.78219 10.0809 9.69434 10.2926 9.69434 10.5083C9.69434 10.724 9.78211 10.9357 9.93469 11.0883C10.0873 11.2408 10.2989 11.3286 10.5155 11.3286C10.7312 11.3286 10.9429 11.2409 11.0954 11.0883C11.248 10.9356 11.335 10.724 11.335 10.5083C11.335 10.2926 11.248 10.0809 11.0954 9.92842C10.9429 9.77576 10.7312 9.68799 10.5155 9.68799Z" fill="#38434A"/>
<path d="M41.1727 40.3594H41.1616C40.7086 40.3594 40.3413 40.7267 40.3413 41.1797C40.3413 41.6327 40.7086 42 41.1616 42H41.1727C41.6257 42 41.993 41.6327 41.993 41.1797C41.993 40.7267 41.6257 40.3594 41.1727 40.3594Z" fill="#38434A"/>
</g>
<defs>
<clipPath id="clip0_41_682">
<rect width="42" height="42" fill="white"/>
</clipPath>
</defs>
</svg>
