<svg width="251" height="215" viewBox="0 0 251 215" fill="none" xmlns="http://www.w3.org/2000/svg">
<g clip-path="url(#clip0_41_516)">
<path d="M217.67 51.1331C218.635 61.8778 224.594 61.3372 227.453 59.7239C230.883 57.5716 230.348 53.0248 229.595 46.6091C228.909 40.7908 228.045 33.4352 229.793 24.9344C232.183 13.3173 236.576 7.82409 239.079 4.69408C240.428 3.00811 241.228 2.00782 240.871 1.10535C239.852 -1.47239 236.995 0.0725389 229.264 9.87325C221.534 19.6739 216.462 37.7026 217.67 51.1331Z" fill="white"/>
<path d="M105.937 47.0361C103.231 49.2839 104.426 52.9777 105.937 54.2832C108.465 56.467 112.149 53.787 113.681 50.7183C114.792 48.4917 115.595 45.7543 115.595 42.4332C115.595 39.0461 113.492 36.812 110.866 35.0681C108.219 33.3104 104.015 33.7906 106.644 35.9894C109.876 38.6916 111.478 42.4332 105.937 47.0361Z" fill="white"/>
<path d="M19.3552 75.1349C19.3552 60.6152 17.6808 57.5453 13.3028 50.5416C11.9955 48.4502 12.1634 45.6481 14.3225 43.1488C16.5072 40.6197 21.2651 38.577 24.1296 39.8901C26.9941 41.2033 29.6158 44.9484 30.0041 46.5047C30.3149 47.7499 31.2017 47.7369 31.6063 47.5748C34.4546 46.8452 40.7047 45.4056 42.9185 45.4834C45.686 45.5807 47.4824 47.0396 47.5795 48.4502C47.5884 48.5797 47.6071 48.7517 47.6295 48.9575L47.6301 48.9625C47.8526 51.0039 48.436 56.3519 43.5012 56.5727C39.1511 56.7673 34.0824 57.3022 32.0919 57.5453C32.5968 59.491 32.7489 69.1951 32.7617 73.8039C32.8021 87.5169 32.8584 115.596 32.7617 118.21C32.6651 120.823 30.95 121.477 30.1045 121.477C24.9915 121.557 14.0649 121.67 11.2628 121.477C7.76019 121.235 8.72646 113.37 11.2628 106.594C11.8219 105.101 12.5275 103.619 13.2881 102.022C15.9784 96.3739 19.3552 89.2842 19.3552 75.1349Z" fill="white"/>
<path d="M9.07889 125.837C9.27311 124.008 10.9724 123.745 11.7977 123.843H31.412C32.8881 123.843 33.2247 125.367 33.2084 126.128V134.486C33.2084 135.653 32.0109 135.912 31.412 135.896C26.1525 135.815 15.0798 135.653 12.8658 135.653C10.1525 135.653 9.67946 135.139 9.11288 134.523L9.07889 134.486C8.49628 133.853 8.83614 128.123 9.07889 125.837Z" fill="white"/>
<path d="M11.7978 138.167C9.43426 138.167 9.27317 138.447 9.07894 141.529C8.88435 144.617 9.00177 152.357 9.05601 155.932C9.0694 156.816 9.07894 157.445 9.07894 157.686C9.07894 159.197 9.07894 160.794 10.5551 160.794H31.4121C33.2085 160.794 33.2085 160.383 33.2085 158.416V142.021C33.2085 138.691 33.2085 138.167 31.4121 138.167H11.7978Z" fill="white"/>
<path d="M34.3208 69.1547C33.8654 67.9959 33.6485 65.8267 34.3208 63.8563C35.3298 60.8985 44.337 58.9082 45.2768 62.0115C45.9822 64.3406 45.4836 69.4689 44.9882 70.2386C44.4929 71.0085 42.4887 70.5902 41.121 70.2386C40.4956 70.0779 39.5375 70.0958 38.5332 70.1148C36.7059 70.149 34.726 70.1861 34.3208 69.1547Z" fill="white"/>
<path d="M35.2454 77.6241V82.2065C35.2454 83.7481 37.2416 83.3501 38.8691 83.0256C39.4657 82.9064 40.0127 82.7974 40.3938 82.7974C40.6102 82.7974 40.8245 82.8002 41.0353 82.803H41.039C42.3247 82.8199 43.4791 82.8351 44.1825 82.2065C44.8951 81.5698 44.2582 75.7204 43.2752 75.0603C42.0623 74.2458 35.2454 75.0603 35.2454 77.6241Z" fill="white"/>
<path d="M34.6477 95.7171C33.8265 94.1255 34.0414 91.8606 34.6477 90.7294C35.9714 88.2603 44.6122 85.8026 46.3315 88.7666C47.45 90.6949 48.2801 95.12 47.4133 96.2817C46.8388 97.0518 45.3495 96.7795 43.9197 96.5179C43.372 96.4179 42.8332 96.3194 42.3579 96.2817C41.705 96.2299 40.801 96.3445 39.8372 96.4666L39.835 96.467C37.7257 96.7347 35.3297 97.0385 34.6477 95.7171Z" fill="white"/>
<path d="M35.1751 108.742L35.1921 108.843C35.4591 110.434 39.0587 109.84 40.6193 109.523C42.5423 109.131 43.599 108.84 44.1595 107.777C44.72 106.713 44.6885 104.277 44.1595 102.27C43.4548 99.5953 35.7221 101.496 35.1921 104.277C34.7842 106.417 34.944 107.367 35.1751 108.742Z" fill="white"/>
<path fill-rule="evenodd" clip-rule="evenodd" d="M12.0907 54.546C14.0306 56.9496 17.5123 63.7975 15.9196 71.9599C15.1337 75.9864 13.8053 78.3396 12.7143 80.272C11.0408 83.2361 9.92621 85.2104 12.1862 90.7161C15.1339 97.8973 12.2868 101.819 9.37022 100.833C5.48619 99.5196 2.9015 96.9685 3.28441 89.067C3.45608 85.5234 2.5431 81.6928 1.63657 77.8893C0.815632 74.445 0 71.0231 0 67.8565C0 61.1932 4.95537 45.7585 12.0907 54.546ZM3.28661 67.6048C2.87238 70.1601 3.53426 72.9485 4.27192 73.4532C4.67072 73.7261 5.69459 73.771 5.40116 71.5935C5.28507 70.7321 5.48034 69.8691 5.64962 69.1209C5.83907 68.2836 5.99596 67.5901 5.64718 67.2041C5.12672 66.628 3.5144 66.2 3.28661 67.6048Z" fill="white"/>
<path d="M63.8008 102.249C63.6751 102.532 63.5519 102.81 63.4311 103.085C61.7605 106.888 60.8947 121.477 65.7172 121.477C65.8963 121.477 66.1085 121.477 66.3502 121.478C66.6499 121.479 66.9947 121.48 67.378 121.481C67.9033 121.483 68.5005 121.486 69.1518 121.488L69.1857 121.488H69.2333C73.7341 121.507 80.7542 121.537 84.5589 121.477C85.4043 121.477 87.216 120.825 87.216 118.21C87.216 112.654 83.5103 112.02 80.0672 111.431C78.6952 111.196 77.3648 110.969 76.3273 110.44C73.3626 108.928 72.0064 106.431 72.0064 103.085C72.0064 97.1222 75.752 92.0294 79.462 86.985C83.1022 82.0354 86.7083 77.1325 86.7083 71.4995C86.7083 68.2942 85.7319 63.5527 82.4965 60.0693C78.6625 55.9411 67.2594 50.3196 69.7864 55.2292C74.428 64.2476 73.6211 73.8039 71.2818 82.5156C69.2665 90.0207 66.5935 95.9993 64.4302 100.838C64.2149 101.32 64.0048 101.79 63.8008 102.249Z" fill="white"/>
<path d="M63.5334 125.837C63.7275 124.008 65.4268 123.745 66.2523 123.843H85.8665C87.3426 123.843 87.6791 125.367 87.6629 126.128V134.486C87.6629 135.653 86.4654 135.912 85.8665 135.896C80.6069 135.815 69.5342 135.653 67.3203 135.653C64.6069 135.653 64.1339 135.139 63.5673 134.523L63.5334 134.486C62.9507 133.853 63.2906 128.123 63.5334 125.837Z" fill="white"/>
<path d="M66.2521 138.167C63.8886 138.167 63.7274 138.447 63.5333 141.529C63.3387 144.617 63.4561 152.357 63.5104 155.932C63.5238 156.816 63.5333 157.445 63.5333 157.686C63.5333 159.197 63.5333 160.383 67.3202 160.383C69.5341 160.383 80.6068 160.657 85.8665 160.794C86.4653 160.821 87.6629 160.383 87.6629 158.416V142.021C87.6629 138.691 87.6629 138.167 85.8665 138.167H66.2521Z" fill="white"/>
<path d="M61.0225 67.5646C65.4742 66.5028 65.0175 63.3005 64.3099 58.3399L64.3095 58.338L64.3088 58.3328C64.25 57.9203 64.1894 57.4955 64.1297 57.0591C63.4603 52.1544 68.6916 49.8539 73.8884 52.0979C79.5203 54.5298 82.3362 46.9423 78.3614 42.8085C75.2851 39.6092 56.7263 38.0367 53.5943 50.8333C51.1463 60.8356 56.1983 68.7153 61.0225 67.5646Z" fill="white"/>
<path d="M88.1075 47.2194C85.4063 45.75 83.0616 46.4871 81.741 49.6996C80.0905 53.7154 81.0157 55.2289 83.5095 57.9673C86.7944 61.5744 91.7756 69.6487 87.0465 79.227C84.8317 83.7128 82.2827 87.1621 80.0419 90.1944C76.7959 94.5871 74.1965 98.1045 74.1965 102.63C74.1965 110.418 84.7259 111.454 86.457 108.164C88.2254 104.802 87.0465 102.63 84.217 100.841C81.0107 98.8135 83.0793 93.7858 85.7497 90.9197C90.7013 85.6049 97.5394 77.6192 97.5394 68.9515C97.5394 59.3846 95.8396 51.4252 88.1075 47.2194Z" fill="white"/>
<path fill-rule="evenodd" clip-rule="evenodd" d="M50.0245 65.1258C50.2796 63.5846 50.9866 61.6075 52.3699 62.8672C52.8462 63.3011 53.1342 63.9191 53.4697 64.6393C53.8497 65.4549 54.2907 66.4015 55.1356 67.3603C57.2285 69.7352 62.2987 70.7393 65.3014 67.3603C67.071 65.369 66.6084 62.1084 66.2458 59.5523C65.9932 57.7712 65.7891 56.3321 66.4227 55.9032C69.256 53.9854 71.3242 64.7507 70.0911 69.7352C69.2544 73.118 66.9505 75.5156 65.0789 77.4635L65.0778 77.4648C64.6766 77.8822 64.2955 78.279 63.9529 78.6602C61.6677 81.2039 59.477 83.6423 59.6868 87.6312C59.7956 89.6954 61.196 91.3891 62.489 92.9528C64.0994 94.9003 65.5431 96.6465 64.1182 98.6562C61.549 102.28 55.267 96.1818 53.4064 91.5031C50.0245 82.9995 48.3286 75.3715 50.0245 65.1258ZM52.8313 75.7343C52.4171 78.2895 53.0789 81.078 53.8166 81.5826C54.2154 81.8556 55.2393 81.9006 54.9459 79.7229C54.8297 78.8615 55.0251 77.9985 55.1943 77.2503C55.3837 76.4131 55.5406 75.7195 55.1919 75.3335C54.6715 74.7575 53.0591 74.3294 52.8313 75.7343Z" fill="white"/>
<path d="M146.594 86.7903C144.069 87.8938 143.297 92.1583 144.297 97.5302C144.337 97.7507 144.378 97.9657 144.417 98.1757L144.621 99.2511C145.52 103.967 145.91 106.019 144.908 110.418C143.777 115.392 146.739 116.112 148.662 115.481C150.98 114.72 153.215 111.92 154.226 108.455C155.336 104.654 155.583 98.0479 155.336 95.0721C154.782 88.4341 150.819 84.9443 146.594 86.7903Z" fill="white"/>
<path d="M121.55 53.2409C124.107 58.4817 125.84 62.0342 125.84 75.8608C125.84 84.7467 123.788 90.1884 121.873 95.2644C120.659 98.4828 119.501 101.554 118.956 105.263C117.943 112.157 117.081 121.477 120.118 121.477C120.825 121.477 122.044 121.482 123.556 121.488L123.59 121.488H123.596C128.095 121.507 135.144 121.537 138.96 121.477C139.805 121.477 141.52 120.823 141.617 118.21L141.624 118.017L141.645 117.506C141.838 112.671 142.74 90.0618 141.617 73.804C141.445 71.3164 141.006 68.4268 140.605 65.7893L140.604 65.7861C139.996 61.7868 139.475 58.3669 140.11 57.8058C140.597 57.374 145.09 57.374 149.339 57.374C151.419 57.374 151.61 55.5315 151.463 53.5193C151.33 51.6905 149.388 51.7101 147.67 51.7275H147.658C147.496 51.7292 147.339 51.7308 147.185 51.7308C145.843 51.7308 144.623 51.8178 143.367 51.9073L143.363 51.9077C142.03 52.0028 140.657 52.1008 139.058 52.1008C138.652 52.1008 138.527 51.6261 138.337 50.9003C138.021 49.6984 137.525 47.8077 135.272 46.2418C131.658 43.7303 128.684 42.6623 123.944 43.3432C120.273 43.8705 120.083 50.219 121.159 52.4386C121.291 52.7113 121.421 52.9782 121.55 53.2409Z" fill="white"/>
<path d="M117.934 125.837C118.129 124.008 119.828 123.745 120.653 123.842H140.267C141.743 123.842 142.08 125.366 142.063 126.128V134.486C142.063 135.653 140.866 135.912 140.267 135.896C135.008 135.815 123.935 135.653 121.721 135.653C119.008 135.653 118.535 135.138 117.968 134.522L117.934 134.486C117.352 133.853 117.692 128.123 117.934 125.837Z" fill="white"/>
<path d="M120.653 138.167C118.29 138.167 118.128 138.447 117.934 141.529C117.74 144.617 117.857 152.357 117.911 155.932V155.933L117.912 155.965C117.925 156.832 117.934 157.449 117.934 157.686C117.934 159.197 117.934 160.794 119.565 160.794H140.267C141.346 160.794 142.063 160.383 142.063 158.416V142.021C142.063 138.691 142.063 138.167 140.267 138.167H120.653Z" fill="white"/>
<path fill-rule="evenodd" clip-rule="evenodd" d="M118.678 54.546C122.507 56.2593 124.561 62.8587 122.968 71.0208C122.281 74.5435 121.367 77.0421 120.556 79.2618C119.267 82.7872 118.235 85.6099 118.773 90.7163C119.588 98.4378 118.874 101.819 115.957 100.833C112.709 99.7345 110.579 94.2974 108.889 89.9822L108.886 89.9748C108.746 89.6173 108.609 89.2675 108.475 88.9286C106.718 84.4973 106.02 71.9836 106.421 67.633C107.353 57.5378 112.272 51.6797 118.678 54.546ZM108.959 67.334C108.545 69.8891 109.207 72.6775 109.945 73.1823C110.344 73.4553 111.368 73.5001 111.074 71.3226C110.958 70.4612 111.153 69.5981 111.323 68.85C111.512 68.0126 111.669 67.3194 111.32 66.9331C110.8 66.357 109.187 65.9289 108.959 67.334Z" fill="white"/>
<path d="M233.736 59.4494C236.271 66.5419 236.112 82.5725 232.908 90.1386C230.406 96.048 228.939 99.5763 227.836 108.167C227.736 108.944 227.615 109.764 227.494 110.599C226.755 115.647 225.934 121.269 228.939 121.477C231.741 121.67 242.667 121.558 247.78 121.477C248.627 121.477 250.341 120.823 250.438 118.21C250.535 115.596 250.438 73.8041 250.438 73.8041C251.261 59.5323 247.129 56.0295 244.6 53.8862L244.556 53.8491C242.151 51.8106 238.216 50.787 235.137 53.0709C233.416 54.3467 232.664 56.4501 233.736 59.4494Z" fill="white"/>
<path d="M226.755 125.837C226.949 124.008 228.648 123.745 229.474 123.843H249.088C250.564 123.843 250.9 125.367 250.885 126.128V134.486C250.885 135.653 249.687 135.912 249.088 135.896C243.828 135.815 232.756 135.653 230.542 135.653C227.829 135.653 227.355 135.139 226.789 134.523L226.755 134.486C226.172 133.853 226.513 128.123 226.755 125.837Z" fill="white"/>
<path d="M229.474 138.167C227.11 138.167 226.949 138.447 226.755 141.529C226.561 144.617 226.678 152.357 226.732 155.932V155.937L226.733 155.954C226.745 156.827 226.755 157.447 226.755 157.686C226.755 159.504 226.755 160.794 229.266 160.794H249.702C250.885 160.794 250.885 160.383 250.885 158.416V142.021C250.885 138.691 250.885 138.167 249.088 138.167H229.474Z" fill="white"/>
<path fill-rule="evenodd" clip-rule="evenodd" d="M215.294 55.0161C213.634 57.1083 211.951 63.6736 211.951 67.0503C211.951 70.3697 212.957 73.997 213.97 77.6372C214.987 81.304 216.009 84.984 216.009 88.3765C216.009 96.5081 216.59 99.1788 219.163 99.1788C220.533 99.1788 223.387 99.1788 226.009 98.6927C228.863 98.1633 227.321 88.9561 226.009 84.8477C224.439 79.9283 226.987 73.7461 229.716 68.2776C231.826 64.0508 232.701 61.6911 231.648 59.1401C231.146 58.6439 230.436 58.5754 229.7 59.4909C228.291 61.2418 226.252 62.7982 222.077 61.8254C219.083 61.1278 218.436 59.0291 217.843 57.1083L217.791 56.94C217.575 56.2365 217.358 55.5267 217.035 55.0161C216.72 54.5205 215.771 54.2501 215.294 55.0161ZM217.034 73.8853C216.24 73.4746 215.243 70.7883 215.342 68.2016C215.396 66.7792 217.049 67.0065 217.637 67.5146C218.029 67.8552 217.958 68.5627 217.872 69.4169C217.796 70.18 217.708 71.0604 217.928 71.9012C218.485 74.0266 217.463 74.1074 217.034 73.8853Z" fill="white"/>
<path d="M222.831 100.99C222.919 103.146 222.71 104.499 221.749 106.343C221.242 107.313 221.149 107.728 221.973 107.586C223.047 107.401 224.275 104.985 224.566 102.865C224.668 102.118 224.87 101.271 225.078 101.049C225.287 100.827 225.584 100.804 225.888 100.804C226.577 100.804 226.957 101.073 226.957 102.118C226.957 103.444 226.957 110.823 221.725 113.559C215.291 116.922 212.706 111.913 214.707 110.24C217.046 108.285 217.541 104.246 217.541 103.029C217.541 102.978 217.541 102.927 217.54 102.875V102.865C217.536 102.133 217.53 101.312 218.307 101.264L218.365 101.261C218.847 101.231 219.21 101.209 219.24 101.576L219.243 101.612C219.282 102.107 219.444 104.079 218.856 105.565C218.551 106.339 218.514 106.66 219.125 106.487C219.921 106.262 220.598 103.427 220.639 102.817L220.641 102.784L220.643 102.74L220.645 102.709L220.65 102.613L220.653 102.575L220.654 102.53L220.656 102.5L220.658 102.44L220.66 102.375L220.661 102.359V102.358V102.357C220.678 101.831 220.699 101.174 221.056 101.098C221.474 101.008 222.831 100.99 222.831 100.99Z" fill="white"/>
<path d="M206.222 100.609C206.187 100.738 206.151 100.869 206.115 101.003C205.665 102.676 205.637 104.044 205.611 105.267C205.581 106.66 205.555 107.865 204.919 109.12C204.049 110.833 201.491 111.564 199.67 111.149C197.473 110.648 195.587 109.067 194.638 106.763C193.596 104.236 193.18 100.602 193.18 98.6054C193.18 95.8382 193.713 91.7185 195.712 89.797C196.515 89.0236 199.61 90.9124 202.407 92.6202L202.413 92.6239L202.425 92.6306C203.625 93.3632 204.769 94.0617 205.654 94.5008C207.65 95.4908 207.218 97.0375 206.42 99.8926C206.356 100.123 206.289 100.362 206.222 100.609Z" fill="white"/>
<path d="M173.299 105.263C178.916 91.5125 178.64 84.5263 178.426 79.1248C178.408 78.6709 178.391 78.2283 178.377 77.7938C178.362 77.3018 178.352 76.8203 178.352 76.3448C178.352 70.4491 178.843 66.8052 181.215 64.8254C183.973 62.5241 186.015 62.0638 190.175 62.0638C194.336 62.0638 195.961 64.6697 195.961 67.875C195.961 71.2017 195.02 75.5039 193.97 80.2921V80.2946C192.655 86.3038 191.17 93.0792 191.17 99.6535C191.17 105.209 192.805 108.959 194.165 112.079C195.132 114.301 195.961 116.203 195.961 118.21C195.961 120.825 194.15 121.477 193.304 121.477C189.488 121.537 182.438 121.507 177.939 121.488H177.934L177.9 121.488H177.835C176.354 121.482 175.158 121.477 174.462 121.477C171.424 121.477 170.666 111.712 173.299 105.263Z" fill="white"/>
<path d="M174.997 123.843C174.172 123.745 172.472 124.008 172.278 125.837C172.035 128.123 171.695 133.853 172.278 134.486L172.312 134.523C172.878 135.139 173.351 135.653 176.065 135.653C178.278 135.653 189.351 135.815 194.612 135.896C195.21 135.912 196.408 135.653 196.408 134.486V126.128C196.424 125.367 196.088 123.843 194.612 123.843H174.997Z" fill="white"/>
<path d="M172.278 141.529C172.472 138.447 172.633 138.167 174.997 138.167H194.612C196.408 138.167 196.408 138.691 196.408 142.021V158.416C196.408 160.383 195.21 160.821 194.612 160.794C189.351 160.657 178.278 160.383 176.065 160.383C172.278 160.383 172.278 159.197 172.278 157.686C172.278 157.545 172.275 157.268 172.269 156.884L172.256 155.93V155.929C172.201 152.354 172.083 144.617 172.278 141.529Z" fill="white"/>
<path fill-rule="evenodd" clip-rule="evenodd" d="M177.313 71.021C178.905 62.8586 176.85 56.2594 173.022 54.5461C166.616 51.6797 161.965 57.4795 161.153 66.2832C160.944 68.5425 161.863 71.7036 162.749 74.7578C163.571 77.5847 164.366 80.3195 164.216 82.1629C163.544 90.3977 162.89 99.0769 170.877 100.037C176.864 100.757 174.826 95.2088 173.074 90.4359L173.022 90.2945C170.911 84.5445 172.349 82.0252 174.182 78.8135C175.328 76.806 176.627 74.5278 177.313 71.021ZM166.834 73.2103C166.029 72.8215 164.96 70.1634 164.988 67.5751C165.003 66.1517 166.661 66.3336 167.262 66.8254C167.664 67.1548 167.613 67.8639 167.55 68.7204C167.494 69.4854 167.43 70.368 167.673 71.2023C168.289 73.3116 167.269 73.4204 166.834 73.2103Z" fill="white"/>
<path d="M171.43 52.5559C171.35 52.1395 171.312 51.4294 171.43 50.7767C171.627 49.6935 171.724 48.2222 171.025 46.7819C170.643 45.9956 169.654 46.1458 169.874 47.2506C170.167 48.7165 169.835 49.699 169.472 50.7648V50.7666L169.39 51.0097C169.215 51.5297 169.283 52.164 169.39 52.3786C169.013 52.3845 168.734 52.4323 168.471 52.4771C168.375 52.4935 168.282 52.5092 168.188 52.5226C168.041 52.5432 167.892 52.5579 167.727 52.5585C167.154 52.561 166.78 51.1503 167.234 50.1235C167.727 49.0165 167.727 47.1509 167.234 45.9618C166.912 45.1784 166.081 45.2647 166.081 46.7819C166.081 47.8665 165.794 48.5473 165.468 49.322C165.214 49.9236 164.936 50.5819 164.75 51.5297C164.629 52.1558 164.62 52.7512 164.612 53.3077V53.3088C164.601 54.123 164.592 54.8537 164.226 55.4745C163.763 56.2648 162.767 56.5326 161.915 56.2971C160.507 55.908 160.101 53.4421 161.623 49.488C163.013 45.8775 162.789 44.5755 161.623 41.56C160.458 38.5445 163.857 37.8149 170.411 40.3441C175.374 42.2595 177.257 49.0502 177.257 51.0442C177.257 53.382 176.523 54.7776 174.975 54.1571C174.774 54.0767 174.503 53.9615 174.351 53.7004C174.16 53.372 174.194 52.5272 174.351 51.7898C174.584 50.6981 174.492 49.7444 174.071 49.4367C173.714 49.1775 173.336 49.488 173.336 50.1235C173.336 50.5204 173.254 50.8195 173.171 51.1248C173.035 51.6156 172.896 52.1221 173.087 53.0745C172.644 52.8678 172.107 52.6797 171.43 52.5559Z" fill="white"/>
<path d="M179.31 55.166C179.167 51.7163 182.238 50.7131 185.211 50.0983C188.184 49.4833 191.069 50.0983 193.065 52.8989C195.062 55.6995 195.01 60.4115 194.308 61.2562C193.985 61.6437 193.251 61.4602 192.191 61.1954L191.954 61.1363L191.791 61.0961C191.537 60.7641 191.598 60.2371 191.845 59.79C192.191 59.1598 192.723 57.0431 191.791 56.7626C191.515 56.6795 191.269 57.0118 191.232 57.2982C191.08 58.4712 190.774 59.1088 190.361 59.79C190.158 60.1227 190.084 60.5076 190.149 60.7641C189.523 60.672 188.842 60.6179 188.113 60.646C187.846 60.4132 187.964 59.3145 188.113 58.8931C188.79 56.9673 188.61 55.5474 187.846 54.4675C187.608 54.1313 187.045 54.1099 187.057 55.166C187.072 56.4073 186.712 57.2127 186.394 57.9288C186.178 58.4135 185.981 58.8573 185.929 59.3676C185.892 59.7379 185.912 60.1926 185.926 60.5243V60.5275C185.936 60.7489 185.944 60.9149 185.929 60.9628C185.347 61.105 184.819 61.2798 184.342 61.4649C184.064 61.3823 184.13 60.0956 184.342 59.3676C184.628 58.3877 184.495 55.9816 183.681 55.5474C183.058 55.2141 183.022 55.5723 183.171 56.4867C183.391 57.8277 183.06 58.8638 182.732 59.8925C182.619 60.2461 182.506 60.5989 182.416 60.9628C182.315 61.3761 182.432 62.0407 182.501 62.2961C181.671 62.7008 181.091 62.9663 180.684 62.7676C179.891 62.3782 179.486 59.4781 179.31 55.166Z" fill="white"/>
<path d="M208.809 80.3282C211.323 82.0342 211.819 85.2201 211.092 87.5546C209.806 91.6739 209.167 92.3991 207.966 92.6512C207.483 92.7527 206.944 92.8267 206.165 92.6759C206.322 91.8061 206.571 90.6921 207.337 89.8406C207.764 89.3658 207.862 89.1358 207.295 89.0439C206.555 88.9241 205.378 90.8253 205.215 91.2724C205.133 91.4999 204.977 91.9108 204.779 92.2524C204.322 92.0703 203.804 91.8294 203.212 91.5141C203.224 91.4879 203.238 91.461 203.25 91.4331C203.261 91.4104 203.27 91.3871 203.281 91.3631C203.303 91.3105 203.324 91.2547 203.344 91.1959L203.376 91.1014C203.763 89.9406 204.304 88.32 205.538 87.0728C206.163 86.44 206.334 86.1393 205.66 86.0521C204.782 85.9384 202.927 88.4438 202.632 89.027C202.6 89.0884 202.567 89.1545 202.533 89.2234C202.276 89.746 201.935 90.4347 201.488 90.5465C201.254 90.4153 201.026 90.2885 200.804 90.1653L200.331 89.9022C200.384 89.7904 200.435 89.6552 200.483 89.4921L200.516 89.3788C200.925 87.9863 201.496 86.0422 202.902 84.5104C203.616 83.733 203.805 83.3692 203.002 83.2955C201.957 83.1994 199.869 86.2494 199.543 86.9535C199.509 87.0275 199.473 87.107 199.436 87.1904C199.379 87.3185 199.33 87.455 199.279 87.5925C199.105 88.073 198.927 88.565 198.389 88.75C197.32 89.1161 196.677 87.3899 196.516 86.5454C196.195 84.8669 197.636 82.3581 200.41 80.3284C203.164 78.3136 206.296 78.6223 208.809 80.3282Z" fill="white"/>
<path d="M0 169.791H9.02472L14.8286 189.171C15.4011 191.083 17.1579 192.393 19.1505 192.393H24.818L31.5865 169.791H40.6113L29.0036 208.551C27.8584 212.376 24.3448 214.994 20.3595 214.994H18.9616C14.3374 214.994 10.849 213.871 10.849 213.871V207.014C10.849 207.014 12.973 207.769 15.5289 207.769H16.8483C18.8425 207.772 20.6014 206.462 21.1746 204.549L22.6499 199.624H15.6506C11.6655 199.624 8.15222 197.005 7.00678 193.181L0 169.791Z" fill="white"/>
<path d="M92.9527 169.791H83.9281L90.9348 193.181C92.0803 197.005 95.5936 199.624 99.5787 199.624H106.578L105.103 204.549C104.529 206.462 102.77 207.772 100.776 207.769H99.4569C96.901 207.769 94.7771 207.014 94.7771 207.014V213.871C94.7771 213.871 98.2655 214.994 102.89 214.994H104.288C108.273 214.994 111.787 212.376 112.932 208.551L124.539 169.791H115.515L108.746 192.393H103.079C101.086 192.393 99.3291 191.083 98.7565 189.171L92.9527 169.791Z" fill="white"/>
<path d="M166.957 169.791H175.982V207.599L189.521 169.791H204.862V214.994H195.837V177.35L182.363 214.983H175.982V214.994H166.957V169.791Z" fill="white"/>
<path d="M212.081 169.791H221.106V187.872H228.296C230.255 187.872 231.991 186.605 232.591 184.737L235.74 174.934C236.725 171.868 239.572 169.791 242.786 169.791C246.593 169.791 248.179 170.815 248.179 170.815V177.021H247.379C245.419 177.021 243.683 178.288 243.083 180.157L240.113 189.407C239.74 190.57 238.847 191.494 237.698 191.904C239.67 192.204 241.303 193.596 241.915 195.499L244.846 204.628C245.446 206.497 247.182 207.763 249.141 207.763H250.885V213.935C250.885 213.935 248.743 214.994 245.02 214.994C241.525 214.994 238.429 212.735 237.358 209.401L233.772 198.238C233.173 196.371 231.437 195.103 229.477 195.103H221.106V214.994H212.081V169.791Z" fill="white"/>
<path fill-rule="evenodd" clip-rule="evenodd" d="M129.052 169.791V214.994H138.076V201.431H146.651C155.374 201.431 162.444 194.35 162.444 185.613C162.444 176.874 155.374 169.791 146.651 169.791H129.052ZM138.076 192.39H146.651C150.389 192.39 153.421 189.356 153.421 185.613C153.421 181.867 150.389 178.831 146.651 178.831H138.076V192.39Z" fill="white"/>
<path d="M75.8287 169.791C77.1948 169.791 78.2699 169.923 79.0984 170.091L81.2224 177.021H80.4204C78.4639 177.021 76.7277 178.292 76.1284 180.156L73.1584 189.408C72.7794 190.574 71.8892 191.492 70.7435 191.908C72.7088 192.208 74.3481 193.593 74.9562 195.501L77.891 204.63C78.4903 206.493 80.2265 207.763 82.183 207.763H83.928V213.935C83.928 213.935 83.267 214.263 82.0333 214.553C81.0461 214.792 79.7065 214.994 78.0584 214.994C74.5684 214.994 71.475 212.735 70.3999 209.397L66.8128 198.237C66.2136 196.375 64.4773 195.103 62.5208 195.103H54.1483V214.994H45.1235V169.791H54.1483V187.872H61.3398C63.2963 187.872 65.0326 186.6 65.6318 184.738L68.787 174.938C69.7652 171.866 72.6119 169.791 75.8287 169.791Z" fill="white"/>
</g>
<defs>
<clipPath id="clip0_41_516">
<rect width="251" height="215" fill="white"/>
</clipPath>
</defs>
</svg>
