<svg width="841" height="201" viewBox="0 0 841 201" fill="none" xmlns="http://www.w3.org/2000/svg">
<path fill-rule="evenodd" clip-rule="evenodd" d="M825.719 100.461C825.716 67.5799 733.275 45.2575 711.902 40.1933C637.296 22.5152 537.384 9.10319 422.163 9.11511C306.943 9.12702 202.418 24.0478 127.815 41.7414C106.516 46.7928 15.3593 67.5884 15.3627 100.545C15.366 132.799 102.086 152.183 122.992 157.137C197.599 174.815 303.255 189.673 418.476 189.661C533.696 189.649 641.801 176.887 716.404 159.193C737.375 154.22 825.722 132.52 825.719 100.461ZM420.551 200.113C652.615 200.089 840.735 155.472 840.729 100.459C840.724 45.4465 652.594 0.869092 420.531 0.893083C188.467 0.917075 0.346774 45.5334 0.352461 100.546C0.358148 155.559 188.488 200.137 420.551 200.113Z" fill="white" fill-opacity="0.25"/>
</svg>
