<svg width="422" height="271" viewBox="0 0 422 271" fill="none" xmlns="http://www.w3.org/2000/svg">
<path d="M366.13 86.0081C367.754 104.081 377.776 103.172 382.585 100.458C388.355 96.8379 387.455 89.19 386.188 78.3984C385.035 68.6118 383.581 56.2394 386.521 41.9407C390.541 22.4003 397.931 13.1605 402.141 7.89564C404.41 5.05976 405.756 3.37723 405.155 1.85924C403.441 -2.47662 398.635 0.122014 385.631 16.6072C372.629 33.0924 364.098 63.4173 366.13 86.0081Z" fill="white" fill-opacity="0.25"/>
<path d="M178.19 79.117C173.638 82.898 175.648 89.1111 178.19 91.307C182.443 94.9803 188.64 90.4724 191.216 85.3108C193.085 81.5655 194.436 76.961 194.436 71.3749C194.436 65.6776 190.899 61.9197 186.482 58.9865C182.029 56.03 174.958 56.8376 179.38 60.5361C184.816 65.0813 187.511 71.3749 178.19 79.117Z" fill="white" fill-opacity="0.25"/>
<path d="M32.5563 126.38C32.5563 101.958 29.7399 96.7939 22.3759 85.0133C20.177 81.4956 20.4594 76.7823 24.091 72.5784C27.7658 68.3242 35.7688 64.8883 40.5871 67.0971C45.4052 69.3059 49.8151 75.6054 50.4683 78.2231C50.991 80.3175 52.4826 80.2956 53.1632 80.023C57.9541 78.7958 68.467 76.3743 72.1908 76.5052C76.8457 76.6689 79.8674 79.1229 80.0307 81.4956C80.0457 81.7134 80.0772 82.0026 80.1149 82.3488L80.1158 82.3571C80.4902 85.791 81.4715 94.7866 73.171 95.1579C65.8538 95.4852 57.328 96.385 53.9799 96.7939C54.8292 100.067 55.085 116.389 55.1066 124.142C55.1745 147.207 55.2693 194.438 55.1066 198.834C54.9442 203.23 52.0593 204.329 50.6371 204.329C42.0368 204.465 23.6578 204.655 18.9446 204.329C13.053 203.922 14.6783 190.693 18.9446 179.296C19.8849 176.784 21.0719 174.292 22.3512 171.606C26.8763 162.105 32.5563 150.18 32.5563 126.38Z" fill="white" fill-opacity="0.25"/>
<path d="M15.2711 211.663C15.5978 208.587 18.456 208.145 19.8443 208.309H52.8364C55.3191 208.309 55.8853 210.872 55.858 212.153V226.211C55.858 228.174 53.8436 228.61 52.8364 228.583C43.9896 228.447 25.3649 228.174 21.6409 228.174C17.0769 228.174 16.2813 227.309 15.3282 226.273L15.2711 226.211C14.2911 225.147 14.8628 215.508 15.2711 211.663Z" fill="white" fill-opacity="0.25"/>
<path d="M19.8445 232.403C15.8689 232.403 15.598 232.874 15.2713 238.057C14.944 243.252 15.1415 256.271 15.2327 262.284C15.2552 263.771 15.2713 264.829 15.2713 265.234C15.2713 267.777 15.2713 270.462 17.7542 270.462H52.8366C55.8582 270.462 55.8582 269.77 55.8582 266.463V238.885C55.8582 233.284 55.8582 232.403 52.8366 232.403H19.8445Z" fill="white" fill-opacity="0.25"/>
<path d="M57.729 116.321C56.9631 114.372 56.5981 110.724 57.729 107.409C59.4263 102.434 74.5766 99.0863 76.1575 104.306C77.344 108.224 76.5054 116.85 75.672 118.145C74.8389 119.44 71.4678 118.736 69.1673 118.145C68.1154 117.874 66.5037 117.904 64.8145 117.936C61.7408 117.994 58.4107 118.056 57.729 116.321Z" fill="white" fill-opacity="0.25"/>
<path d="M59.2842 130.567V138.275C59.2842 140.868 62.6419 140.198 65.3794 139.652C66.383 139.452 67.3031 139.268 67.9441 139.268C68.3081 139.268 68.6686 139.273 69.0231 139.278H69.0293C71.1918 139.306 73.1337 139.332 74.3168 138.275C75.5155 137.203 74.4442 127.365 72.7907 126.254C70.7506 124.884 59.2842 126.254 59.2842 130.567Z" fill="white" fill-opacity="0.25"/>
<path d="M58.2788 161.001C56.8974 158.323 57.2589 154.514 58.2788 152.611C60.5053 148.458 75.0395 144.324 77.9314 149.309C79.8127 152.553 81.2091 159.996 79.7511 161.95C78.7847 163.246 76.2796 162.788 73.8746 162.348C72.9534 162.179 72.0471 162.014 71.2476 161.95C70.1495 161.863 68.6289 162.056 67.0077 162.261L67.0041 162.262C63.456 162.712 59.426 163.223 58.2788 161.001Z" fill="white" fill-opacity="0.25"/>
<path d="M59.1659 182.909L59.1945 183.078C59.6436 185.755 65.6983 184.756 68.3233 184.222C71.5579 183.564 73.3353 183.074 74.2781 181.285C75.2208 179.497 75.1678 175.398 74.2781 172.022C73.0928 167.523 60.086 170.72 59.1945 175.398C58.5084 178.997 58.7771 180.596 59.1659 182.909Z" fill="white" fill-opacity="0.25"/>
<path fill-rule="evenodd" clip-rule="evenodd" d="M20.337 91.7485C23.6 95.7915 29.4564 107.31 26.7774 121.039C25.4556 127.812 23.221 131.77 21.3859 135.021C18.5711 140.006 16.6963 143.327 20.4976 152.588C25.4558 164.667 20.6669 171.263 15.7611 169.605C9.228 167.396 4.88045 163.105 5.52451 149.814C5.81328 143.854 4.2776 137.411 2.75279 131.013C1.37193 125.22 0 119.464 0 114.137C0 102.929 8.33514 76.9676 20.337 91.7485ZM5.52821 113.714C4.83147 118.012 5.94477 122.702 7.18555 123.551C7.85635 124.01 9.57855 124.086 9.08498 120.423C8.88972 118.974 9.21815 117.523 9.5029 116.264C9.82155 114.856 10.0855 113.689 9.4988 113.04C8.62336 112.071 5.91136 111.351 5.52821 113.714Z" fill="white" fill-opacity="0.25"/>
<path d="M107.316 171.987C107.104 172.462 106.897 172.931 106.694 173.393C103.884 179.789 102.427 204.329 110.539 204.329C110.841 204.329 111.197 204.329 111.604 204.33C112.108 204.332 112.688 204.334 113.333 204.336C114.216 204.339 115.221 204.343 116.316 204.348L116.373 204.348H116.453C124.024 204.38 135.832 204.43 142.232 204.329C143.654 204.329 146.701 203.233 146.701 198.834C146.701 189.488 140.468 188.422 134.677 187.431C132.369 187.036 130.131 186.654 128.386 185.764C123.399 183.221 121.118 179.021 121.118 173.393C121.118 163.363 127.418 154.797 133.658 146.312C139.782 137.987 145.847 129.74 145.847 120.265C145.847 114.873 144.205 106.898 138.763 101.039C132.314 94.095 113.133 84.6394 117.384 92.8976C125.191 108.067 123.834 124.141 119.899 138.794C116.509 151.418 112.013 161.475 108.374 169.614C108.012 170.424 107.659 171.214 107.316 171.987Z" fill="white" fill-opacity="0.25"/>
<path d="M106.866 211.663C107.192 208.587 110.051 208.145 111.439 208.309H144.431C146.914 208.309 147.48 210.872 147.453 212.153V226.211C147.453 228.174 145.438 228.61 144.431 228.583C135.584 228.447 116.959 228.174 113.236 228.174C108.672 228.174 107.876 227.309 106.923 226.273L106.866 226.211C105.886 225.147 106.458 215.508 106.866 211.663Z" fill="white" fill-opacity="0.25"/>
<path d="M111.439 232.403C107.463 232.403 107.192 232.874 106.866 238.057C106.538 243.252 106.736 256.271 106.827 262.284C106.85 263.771 106.866 264.829 106.866 265.234C106.866 267.777 106.866 269.77 113.235 269.77C116.959 269.77 135.584 270.231 144.431 270.462C145.438 270.508 147.452 269.77 147.452 266.463V238.885C147.452 233.284 147.452 232.403 144.431 232.403H111.439Z" fill="white" fill-opacity="0.25"/>
<path d="M102.642 113.647C110.13 111.861 109.362 106.474 108.172 98.1302L108.171 98.127L108.17 98.1182C108.071 97.4244 107.969 96.7099 107.869 95.9758C106.743 87.7259 115.542 83.8564 124.283 87.6309C133.757 91.7214 138.493 78.959 131.807 72.0058C126.633 66.6243 95.4159 63.9794 90.1479 85.5037C86.0302 102.328 94.5278 115.582 102.642 113.647Z" fill="white" fill-opacity="0.25"/>
<path d="M148.201 79.4252C143.657 76.9537 139.713 78.1935 137.492 83.5971C134.716 90.3519 136.272 92.8976 140.467 97.5037C145.992 103.571 154.37 117.152 146.416 133.263C142.691 140.809 138.403 146.611 134.634 151.711C129.174 159.1 124.802 165.016 124.802 172.628C124.802 185.728 142.513 187.471 145.424 181.936C148.399 176.281 146.416 172.628 141.657 169.619C136.264 166.209 139.743 157.752 144.235 152.931C152.563 143.991 164.065 130.559 164.065 115.98C164.065 99.8877 161.206 86.4997 148.201 79.4252Z" fill="white" fill-opacity="0.25"/>
<path fill-rule="evenodd" clip-rule="evenodd" d="M84.1433 109.545C84.5724 106.953 85.7617 103.627 88.0884 105.746C88.8896 106.476 89.3739 107.515 89.9383 108.727C90.5774 110.099 91.3192 111.691 92.7404 113.304C96.2608 117.298 104.789 118.987 109.84 113.304C112.816 109.954 112.038 104.47 111.428 100.17C111.003 97.1744 110.66 94.7538 111.726 94.0324C116.492 90.8064 119.97 108.914 117.896 117.298C116.489 122.988 112.614 127.021 109.465 130.298L109.464 130.3C108.789 131.002 108.148 131.669 107.571 132.311C103.728 136.589 100.043 140.691 100.396 147.4C100.579 150.872 102.934 153.721 105.109 156.351C107.818 159.627 110.246 162.564 107.85 165.945C103.528 172.04 92.9615 161.783 89.8317 153.913C84.1433 139.61 81.2908 126.779 84.1433 109.545ZM88.8645 127.389C88.1678 131.687 89.2809 136.377 90.5217 137.226C91.1926 137.685 92.9148 137.761 92.4213 134.098C92.2259 132.649 92.5545 131.198 92.8391 129.939C93.1577 128.531 93.4216 127.364 92.8352 126.715C91.9597 125.746 89.2476 125.026 88.8645 127.389Z" fill="white" fill-opacity="0.25"/>
<path d="M246.577 145.984C242.329 147.841 241.032 155.014 242.714 164.05C242.78 164.42 242.849 164.782 242.916 165.135L243.259 166.944C244.771 174.876 245.426 178.328 243.742 185.728C241.839 194.094 246.821 195.305 250.055 194.244C253.955 192.963 257.715 188.253 259.415 182.426C261.281 176.031 261.697 164.92 261.281 159.915C260.349 148.749 253.684 142.88 246.577 145.984Z" fill="white" fill-opacity="0.25"/>
<path d="M204.451 89.5535C208.753 98.3688 211.669 104.344 211.669 127.601C211.669 142.548 208.216 151.701 204.996 160.239C202.954 165.652 201.005 170.818 200.089 177.057C198.386 188.652 196.935 204.329 202.044 204.329C203.232 204.329 205.284 204.338 207.826 204.348L207.883 204.348H207.893C215.461 204.38 227.318 204.43 233.736 204.329C235.158 204.329 238.043 203.23 238.206 198.834L238.218 198.51L238.252 197.649C238.577 189.518 240.095 151.488 238.206 124.142C237.917 119.957 237.178 115.097 236.504 110.66L236.502 110.655C235.48 103.928 234.603 98.1757 235.671 97.2318C236.49 96.5056 244.048 96.5056 251.194 96.5056C254.694 96.5056 255.014 93.4064 254.767 90.0219C254.544 86.9457 251.277 86.9787 248.387 87.008H248.367C248.095 87.0107 247.831 87.0135 247.571 87.0135C245.314 87.0135 243.261 87.1599 241.149 87.3104L241.142 87.3111C238.901 87.471 236.591 87.6358 233.902 87.6358C233.218 87.6358 233.009 86.8374 232.689 85.6165C232.158 83.5949 231.322 80.4146 227.533 77.7808C221.455 73.5563 216.452 71.7599 208.479 72.9052C202.304 73.7921 201.984 84.4705 203.794 88.204C204.017 88.6627 204.236 89.1117 204.451 89.5535Z" fill="white" fill-opacity="0.25"/>
<path d="M198.37 211.663C198.697 208.587 201.555 208.145 202.944 208.309H235.935C238.418 208.309 238.984 210.872 238.956 212.154V226.211C238.956 228.174 236.943 228.611 235.935 228.583C227.089 228.447 208.464 228.174 204.74 228.174C200.176 228.174 199.381 227.309 198.428 226.273L198.37 226.211C197.39 225.147 197.962 215.508 198.37 211.663Z" fill="white" fill-opacity="0.25"/>
<path d="M202.943 232.403C198.968 232.403 198.697 232.874 198.37 238.057C198.043 243.252 198.241 256.271 198.332 262.284V262.286L198.332 262.339C198.355 263.798 198.37 264.836 198.37 265.234C198.37 267.777 198.37 270.462 201.113 270.462H235.935C237.751 270.462 238.956 269.77 238.956 266.463V238.885C238.956 233.284 238.956 232.403 235.935 232.403H202.943Z" fill="white" fill-opacity="0.25"/>
<path fill-rule="evenodd" clip-rule="evenodd" d="M199.621 91.7481C206.061 94.63 209.517 105.73 206.838 119.459C205.682 125.385 204.145 129.587 202.78 133.321C200.612 139.251 198.876 143.999 199.782 152.588C201.152 165.576 199.951 171.263 195.045 169.605C189.581 167.757 185.999 158.612 183.156 151.353L183.151 151.341C182.915 150.74 182.685 150.151 182.459 149.581C179.504 142.128 178.33 121.079 179.005 113.761C180.573 96.7804 188.847 86.927 199.621 91.7481ZM183.274 113.258C182.578 117.556 183.691 122.246 184.932 123.095C185.603 123.554 187.325 123.63 186.831 119.967C186.636 118.518 186.964 117.066 187.249 115.808C187.568 114.4 187.832 113.234 187.245 112.584C186.37 111.615 183.657 110.895 183.274 113.258Z" fill="white" fill-opacity="0.25"/>
<path d="M393.154 99.9967C397.418 111.927 397.151 138.891 391.76 151.617C387.552 161.557 385.086 167.492 383.229 181.942C383.061 183.249 382.858 184.628 382.654 186.033C381.411 194.524 380.031 203.98 385.086 204.329C389.798 204.655 408.176 204.465 416.776 204.329C418.201 204.329 421.084 203.23 421.247 198.834C421.41 194.438 421.247 124.142 421.247 124.142C422.632 100.136 415.681 94.2444 411.427 90.6393L411.354 90.5768C407.309 87.148 400.689 85.4263 395.51 89.2679C392.616 91.4137 391.351 94.9517 393.154 99.9967Z" fill="white" fill-opacity="0.25"/>
<path d="M381.411 211.663C381.738 208.587 384.595 208.145 385.985 208.309H418.976C421.459 208.309 422.025 210.872 421.999 212.153V226.211C421.999 228.174 419.984 228.61 418.976 228.583C410.13 228.447 391.505 228.174 387.782 228.174C383.217 228.174 382.421 227.309 381.469 226.273L381.411 226.211C380.431 225.147 381.004 215.508 381.411 211.663Z" fill="white" fill-opacity="0.25"/>
<path d="M385.985 232.403C382.01 232.403 381.738 232.874 381.411 238.057C381.085 243.252 381.283 256.271 381.372 262.284V262.293L381.375 262.321C381.395 263.789 381.411 264.833 381.411 265.234C381.411 268.293 381.411 270.462 385.636 270.462H420.009C421.999 270.462 421.999 269.77 421.999 266.463V238.885C421.999 233.284 421.999 232.403 418.976 232.403H385.985Z" fill="white" fill-opacity="0.25"/>
<path fill-rule="evenodd" clip-rule="evenodd" d="M362.133 92.5391C359.342 96.0582 356.51 107.101 356.51 112.781C356.51 118.364 358.203 124.466 359.906 130.589C361.617 136.756 363.336 142.946 363.336 148.653C363.336 162.33 364.314 166.823 368.642 166.823C370.945 166.823 375.747 166.823 380.157 166.005C384.957 165.114 382.364 149.628 380.157 142.717C377.516 134.442 381.802 124.044 386.392 114.845C389.94 107.736 391.413 103.767 389.641 99.4757C388.797 98.6411 387.602 98.5259 386.365 100.066C383.995 103.011 380.564 105.629 373.542 103.993C368.506 102.819 367.418 99.289 366.422 96.0582L366.334 95.7752C365.971 94.5919 365.605 93.3979 365.062 92.5391C364.533 91.7054 362.936 91.2507 362.133 92.5391ZM365.059 124.278C363.725 123.587 362.048 119.069 362.213 114.718C362.305 112.325 365.085 112.707 366.074 113.562C366.734 114.135 366.615 115.325 366.47 116.762C366.341 118.045 366.194 119.526 366.564 120.941C367.501 124.515 365.782 124.651 365.059 124.278Z" fill="white" fill-opacity="0.25"/>
<path d="M374.81 169.869C374.96 173.495 374.608 175.771 372.99 178.872C372.139 180.504 371.983 181.203 373.368 180.964C375.174 180.653 377.24 176.589 377.73 173.023C377.9 171.767 378.241 170.342 378.59 169.969C378.942 169.595 379.442 169.557 379.953 169.557C381.112 169.557 381.752 170.009 381.752 171.767C381.752 173.997 381.752 186.409 372.951 191.01C362.128 196.667 357.78 188.241 361.146 185.428C365.08 182.14 365.913 175.345 365.913 173.298C365.913 173.213 365.913 173.127 365.911 173.039V173.023C365.904 171.792 365.895 170.41 367.202 170.331L367.298 170.325C368.11 170.274 368.72 170.237 368.771 170.855L368.775 170.915C368.842 171.747 369.114 175.065 368.124 177.564C367.611 178.866 367.549 179.406 368.577 179.115C369.917 178.736 371.055 173.968 371.124 172.942L371.127 172.886L371.131 172.813L371.134 172.76L371.143 172.598L371.147 172.535L371.15 172.46L371.152 172.408L371.157 172.309L371.159 172.199L371.161 172.172V172.17V172.168C371.189 171.283 371.226 170.178 371.826 170.05C372.528 169.9 374.81 169.869 374.81 169.869Z" fill="white" fill-opacity="0.25"/>
<path d="M346.874 169.229C346.814 169.446 346.755 169.667 346.695 169.892C345.938 172.706 345.889 175.007 345.846 177.064C345.795 179.407 345.751 181.434 344.682 183.544C343.218 186.425 338.916 187.656 335.853 186.958C332.158 186.115 328.986 183.455 327.389 179.581C325.636 175.329 324.936 169.216 324.936 165.858C324.936 161.204 325.834 154.274 329.195 151.042C330.546 149.741 335.752 152.918 340.457 155.791L340.467 155.797L340.487 155.809C342.505 157.041 344.431 158.216 345.919 158.954C349.276 160.62 348.549 163.221 347.208 168.024C347.1 168.411 346.987 168.812 346.874 169.229Z" fill="white" fill-opacity="0.25"/>
<path d="M291.497 177.058C300.944 153.928 300.479 142.177 300.12 133.092C300.09 132.328 300.06 131.584 300.037 130.853C300.012 130.025 299.996 129.216 299.996 128.416C299.996 118.499 300.822 112.37 304.811 109.04C309.45 105.169 312.885 104.395 319.882 104.395C326.881 104.395 329.614 108.778 329.614 114.169C329.614 119.765 328.031 127.001 326.266 135.055V135.059C324.053 145.167 321.557 156.564 321.557 167.622C321.557 176.967 324.306 183.275 326.593 188.523C328.22 192.26 329.614 195.459 329.614 198.834C329.614 203.233 326.568 204.33 325.146 204.33C318.727 204.431 306.868 204.381 299.301 204.349H299.292L299.234 204.349H299.126C296.635 204.338 294.624 204.33 293.453 204.33C288.343 204.33 287.068 187.905 291.497 177.058Z" fill="white" fill-opacity="0.25"/>
<path d="M294.352 208.309C292.965 208.145 290.105 208.587 289.778 211.663C289.371 215.508 288.798 225.147 289.778 226.211L289.836 226.273C290.788 227.309 291.584 228.174 296.149 228.174C299.872 228.174 318.496 228.447 327.345 228.583C328.351 228.61 330.366 228.174 330.366 226.211V212.153C330.394 210.872 329.828 208.309 327.345 208.309H294.352Z" fill="white" fill-opacity="0.25"/>
<path d="M289.778 238.057C290.105 232.874 290.376 232.403 294.352 232.403H327.345C330.366 232.403 330.366 233.284 330.366 238.885V266.463C330.366 269.77 328.351 270.508 327.345 270.462C318.496 270.231 299.872 269.77 296.149 269.77C289.778 269.77 289.778 267.777 289.778 265.234C289.778 264.997 289.774 264.531 289.764 263.886L289.741 262.282V262.279C289.649 256.266 289.451 243.252 289.778 238.057Z" fill="white" fill-opacity="0.25"/>
<path fill-rule="evenodd" clip-rule="evenodd" d="M298.247 119.46C300.926 105.73 297.47 94.6302 291.03 91.7484C280.255 86.927 272.433 96.6825 271.066 111.491C270.714 115.291 272.26 120.608 273.751 125.745C275.134 130.5 276.471 135.1 276.217 138.201C275.088 152.052 273.988 166.651 287.422 168.266C297.493 169.477 294.065 160.145 291.117 152.117L291.03 151.879C287.48 142.207 289.898 137.969 292.981 132.567C294.909 129.19 297.095 125.358 298.247 119.46ZM280.621 123.142C279.268 122.488 277.469 118.017 277.517 113.664C277.543 111.27 280.331 111.575 281.341 112.403C282.018 112.957 281.933 114.15 281.827 115.59C281.732 116.877 281.624 118.361 282.034 119.765C283.069 123.313 281.353 123.496 280.621 123.142Z" fill="white" fill-opacity="0.25"/>
<path d="M288.352 88.4015C288.218 87.701 288.154 86.5066 288.352 85.4088C288.683 83.5868 288.846 81.112 287.671 78.6893C287.029 77.3668 285.365 77.6194 285.736 79.4776C286.228 81.9434 285.669 83.596 285.059 85.3887V85.3917L284.921 85.8006C284.627 86.6753 284.742 87.7423 284.921 88.1032C284.286 88.1131 283.817 88.1936 283.375 88.2689C283.214 88.2964 283.058 88.3229 282.899 88.3455C282.653 88.38 282.402 88.4047 282.124 88.4059C281.159 88.41 280.531 86.0371 281.295 84.31C282.124 82.4479 282.124 79.31 281.295 77.3098C280.752 75.9921 279.356 76.1373 279.356 78.6893C279.356 80.5136 278.873 81.6587 278.325 82.9619C277.897 83.9738 277.43 85.081 277.117 86.6753C276.912 87.7284 276.898 88.7299 276.885 89.6659V89.6678C276.866 91.0374 276.85 92.2663 276.236 93.3107C275.456 94.6399 273.781 95.0903 272.348 94.6943C269.98 94.0397 269.297 89.8921 271.857 83.241C274.195 77.1681 273.818 74.978 271.857 69.9058C269.897 64.8336 275.615 63.6065 286.638 67.8607C294.987 71.0824 298.153 82.5046 298.153 85.8587C298.153 89.7909 296.92 92.1384 294.315 91.0948C293.977 90.9595 293.522 90.7656 293.266 90.3265C292.944 89.774 293.002 88.3531 293.266 87.1128C293.657 85.2765 293.503 83.6723 292.795 83.1548C292.194 82.7187 291.559 83.241 291.559 84.31C291.559 84.9775 291.421 85.4807 291.281 85.9942C291.053 86.8199 290.818 87.6717 291.14 89.2736C290.395 88.9261 289.491 88.6096 288.352 88.4015Z" fill="white" fill-opacity="0.25"/>
<path d="M301.606 92.7915C301.367 86.9889 306.532 85.3015 311.532 84.2672C316.534 83.2328 321.386 84.2672 324.743 88.978C328.102 93.6888 328.015 101.615 326.834 103.035C326.291 103.687 325.056 103.379 323.273 102.933L322.875 102.834L322.601 102.766C322.173 102.208 322.277 101.321 322.691 100.569C323.273 99.5091 324.168 95.9487 322.601 95.4769C322.136 95.3372 321.722 95.8962 321.66 96.3779C321.405 98.3509 320.889 99.4234 320.194 100.569C319.854 101.129 319.73 101.776 319.838 102.208C318.786 102.053 317.641 101.962 316.414 102.009C315.966 101.617 316.163 99.7693 316.414 99.0606C317.553 95.8212 317.249 93.4329 315.966 91.6164C315.565 91.051 314.617 91.0151 314.638 92.7915C314.663 94.8792 314.058 96.2341 313.522 97.4386C313.159 98.2538 312.827 99.0004 312.74 99.8587C312.678 100.482 312.712 101.246 312.735 101.804V101.81C312.751 102.182 312.765 102.461 312.74 102.542C311.762 102.781 310.874 103.075 310.071 103.386C309.604 103.247 309.714 101.083 310.071 99.8587C310.552 98.2105 310.329 94.1633 308.96 93.4329C307.911 92.8724 307.851 93.4749 308.101 95.0129C308.472 97.2685 307.915 99.0112 307.363 100.742C307.172 101.336 306.983 101.93 306.831 102.542C306.661 103.237 306.859 104.355 306.974 104.785C305.578 105.465 304.602 105.912 303.919 105.578C302.584 104.923 301.903 100.045 301.606 92.7915Z" fill="white" fill-opacity="0.25"/>
<path d="M351.225 135.115C355.454 137.985 356.289 143.344 355.065 147.271C352.902 154.199 351.828 155.419 349.808 155.843C348.996 156.014 348.089 156.138 346.778 155.885C347.042 154.422 347.461 152.548 348.75 151.116C349.467 150.317 349.633 149.93 348.678 149.775C347.434 149.574 345.455 152.772 345.181 153.524C345.043 153.907 344.781 154.598 344.447 155.172C343.679 154.866 342.807 154.461 341.81 153.931C341.831 153.887 341.854 153.841 341.875 153.794C341.893 153.756 341.909 153.717 341.928 153.677C341.965 153.588 341.999 153.494 342.034 153.395L342.086 153.236C342.738 151.284 343.649 148.558 345.724 146.46C346.775 145.396 347.063 144.89 345.929 144.743C344.452 144.552 341.332 148.766 340.835 149.747C340.782 149.85 340.727 149.962 340.669 150.077C340.237 150.957 339.664 152.115 338.911 152.303C338.518 152.082 338.134 151.869 337.761 151.662L336.965 151.219C337.055 151.031 337.14 150.804 337.22 150.529L337.276 150.339C337.964 147.997 338.925 144.727 341.29 142.15C342.491 140.842 342.809 140.23 341.458 140.106C339.701 139.945 336.187 145.075 335.64 146.259C335.582 146.384 335.522 146.518 335.46 146.658C335.364 146.873 335.281 147.103 335.196 147.334C334.903 148.142 334.604 148.97 333.698 149.281C331.901 149.897 330.82 146.993 330.548 145.573C330.007 142.75 332.432 138.53 337.098 135.116C341.73 131.727 346.999 132.246 351.225 135.115Z" fill="white" fill-opacity="0.25"/>
</svg>
