<svg width="306" height="775" viewBox="0 0 306 775" fill="none" xmlns="http://www.w3.org/2000/svg">
<path d="M123.634 227.84C123.634 135.093 112.939 115.484 84.9739 70.7465C76.6232 57.3876 77.6958 39.4886 91.487 23.5239C105.442 7.3685 135.834 -5.67961 154.132 2.70841C172.429 11.0964 189.176 35.0193 191.656 44.9601C193.642 52.914 199.306 52.8308 201.89 51.7953C220.084 47.1352 260.008 37.9393 274.149 38.4365C291.827 39.0579 303.301 48.3773 303.922 57.3876C303.979 58.2148 304.098 59.3133 304.242 60.628L304.245 60.6595C305.667 73.6998 309.393 107.861 277.871 109.271C250.084 110.514 217.707 113.931 204.992 115.484C208.217 127.912 209.189 189.899 209.271 219.339C209.529 306.933 209.889 486.294 209.271 502.988C208.654 519.684 197.698 523.856 192.298 523.856C159.637 524.372 89.8417 525.093 71.9431 523.856C49.5694 522.311 55.7417 472.072 71.9431 428.791C75.514 419.251 80.0217 409.788 84.88 399.587C102.064 363.508 123.634 318.221 123.634 227.84Z" fill="white" fill-opacity="0.25"/>
<path d="M57.9928 551.707C59.2334 540.025 70.0878 538.348 75.3598 538.969H200.65C210.078 538.969 212.228 548.704 212.124 553.57V606.954C212.124 614.41 204.475 616.067 200.65 615.964C167.054 615.446 96.3247 614.41 82.1826 614.41C64.8507 614.41 61.829 611.124 58.2099 607.19L57.9928 606.954C54.2713 602.915 56.4422 566.309 57.9928 551.707Z" fill="white" fill-opacity="0.25"/>
<path d="M75.3602 630.47C60.2629 630.47 59.2339 632.256 57.9933 651.941C56.7503 671.671 57.5003 721.108 57.8467 743.944C57.9323 749.59 57.9933 753.608 57.9933 755.148C57.9933 764.803 57.9933 775 67.4224 775H200.65C212.125 775 212.125 772.374 212.125 759.813V655.084C212.125 633.814 212.125 630.47 200.65 630.47H75.3602Z" fill="white" fill-opacity="0.25"/>
<path d="M219.23 189.641C216.321 182.239 214.935 168.383 219.23 155.797C225.675 136.903 283.21 124.189 289.213 144.012C293.719 158.89 290.534 191.648 287.37 196.565C284.206 201.482 271.404 198.811 262.667 196.565C258.673 195.538 252.552 195.653 246.137 195.773C234.465 195.992 221.818 196.229 219.23 189.641Z" fill="white" fill-opacity="0.25"/>
<path d="M225.136 243.741V273.012C225.136 282.859 237.887 280.316 248.283 278.243C252.094 277.482 255.588 276.786 258.022 276.786C259.405 276.786 260.774 276.804 262.12 276.822H262.144C270.356 276.93 277.73 277.027 282.223 273.012C286.775 268.944 282.707 231.58 276.427 227.364C268.68 222.161 225.136 227.364 225.136 243.741Z" fill="white" fill-opacity="0.25"/>
<path d="M221.318 359.313C216.072 349.146 217.445 334.679 221.318 327.453C229.773 311.681 284.968 295.982 295.95 314.915C303.095 327.232 308.397 355.498 302.861 362.919C299.191 367.838 289.678 366.099 280.544 364.428C277.046 363.789 273.604 363.16 270.568 362.919C266.398 362.588 260.623 363.32 254.467 364.1L254.453 364.103C240.979 365.813 225.675 367.754 221.318 359.313Z" fill="white" fill-opacity="0.25"/>
<path d="M224.687 442.514L224.795 443.156C226.501 453.323 249.494 449.527 259.462 447.499C271.746 444.998 278.496 443.139 282.076 436.347C285.656 429.554 285.455 413.99 282.076 401.169C277.575 384.085 228.181 396.225 224.795 413.99C222.19 427.657 223.21 433.728 224.687 442.514Z" fill="white" fill-opacity="0.25"/>
<path fill-rule="evenodd" clip-rule="evenodd" d="M77.2313 96.3251C89.6225 111.679 111.863 155.421 101.689 207.559C96.6692 233.279 88.1835 248.311 81.2145 260.654C70.5251 279.588 63.4053 292.199 77.8412 327.368C96.6701 373.239 78.4841 398.289 59.8539 391.99C35.044 383.602 18.5339 367.306 20.9797 316.834C22.0763 294.199 16.2445 269.73 10.4539 245.435C5.20999 223.434 0 201.576 0 181.348C0 138.785 31.6533 40.1938 77.2313 96.3251ZM20.9938 179.741C18.3478 196.063 22.5757 213.875 27.2876 217.098C29.835 218.841 36.3752 219.128 34.5008 205.219C33.7593 199.717 35.0066 194.204 36.0879 189.425C37.298 184.077 38.3002 179.647 36.0723 177.181C32.7478 173.501 22.4488 170.767 20.9938 179.741Z" fill="white" fill-opacity="0.25"/>
</svg>
