<svg width="314" height="784" viewBox="0 0 314 784" fill="none" xmlns="http://www.w3.org/2000/svg">
<path d="M94.1197 402.34C93.3005 404.183 92.4973 405.999 91.7101 407.79C80.8229 432.571 75.18 527.651 106.609 527.651C107.777 527.651 109.159 527.654 110.735 527.657C112.688 527.663 114.935 527.67 117.433 527.679C120.856 527.691 124.748 527.708 128.993 527.726L129.214 527.727H129.525C158.857 527.85 204.608 528.042 229.404 527.651C234.914 527.651 246.721 523.405 246.721 506.36C246.721 470.149 222.57 466.018 200.131 462.18C191.189 460.651 182.519 459.168 175.757 455.72C156.436 445.869 147.597 429.594 147.597 407.79C147.597 368.928 172.007 335.738 196.186 302.862C219.91 270.605 243.412 238.652 243.412 201.94C243.412 181.051 237.049 150.15 215.963 127.448C190.976 100.544 116.66 63.9073 133.129 95.9043C163.379 154.679 158.121 216.959 142.875 273.734C129.74 322.647 112.32 361.61 98.2213 393.147C96.8181 396.284 95.4489 399.347 94.1197 402.34Z" fill="white" fill-opacity="0.25"/>
<path d="M92.377 556.066C93.642 544.147 104.716 542.436 110.096 543.07H237.926C247.546 543.07 249.738 553.002 249.633 557.967V612.433C249.633 620.04 241.829 621.731 237.926 621.625C203.648 621.097 131.485 620.04 117.057 620.04C99.3731 620.04 96.2905 616.688 92.5981 612.673L92.377 612.433C88.5794 608.312 90.7947 570.964 92.377 556.066Z" fill="white" fill-opacity="0.25"/>
<path d="M110.095 636.426C94.6916 636.426 93.6415 638.248 92.3765 658.332C91.108 678.462 91.8729 728.901 92.2268 752.201C92.3141 757.961 92.3765 762.06 92.3765 763.632C92.3765 773.482 92.3765 781.207 117.056 781.207C131.484 781.207 203.647 782.993 237.925 783.886C241.828 784.065 249.633 781.207 249.633 768.391V661.538C249.633 639.837 249.633 636.426 237.925 636.426H110.095Z" fill="white" fill-opacity="0.25"/>
<path d="M76.0133 176.296C105.026 169.376 102.049 148.507 97.4375 116.177L97.4348 116.165L97.4304 116.131C97.0471 113.443 96.6521 110.674 96.2635 107.83C91.9007 75.8651 125.994 60.8727 159.862 75.4972C196.567 91.3461 214.918 41.8972 189.013 14.9566C168.965 -5.89429 48.0137 -16.142 27.6022 67.2553C11.6479 132.442 44.5727 183.795 76.0133 176.296Z" fill="white" fill-opacity="0.25"/>
<path d="M252.531 43.7027C234.927 34.1266 219.645 38.9303 211.039 59.8669C200.282 86.0385 206.312 95.9023 222.565 113.749C243.973 137.257 276.436 189.879 245.616 252.302C231.182 281.537 214.569 304.016 199.966 323.779C178.811 352.406 161.87 375.33 161.87 404.824C161.87 455.577 230.493 462.334 241.774 440.887C253.299 418.977 245.616 404.824 227.175 393.163C206.28 379.951 219.761 347.185 237.164 328.506C269.435 293.868 314 241.824 314 185.335C314 122.986 302.922 71.1131 252.531 43.7027Z" fill="white" fill-opacity="0.25"/>
<path fill-rule="evenodd" clip-rule="evenodd" d="M4.33707 160.402C5.99962 150.358 10.6075 137.473 19.6228 145.682C22.7268 148.51 24.6033 152.538 26.79 157.231C29.2664 162.547 32.1405 168.716 37.647 174.965C51.2871 190.442 84.3305 196.986 103.9 174.965C115.432 161.987 112.417 140.737 110.054 124.079C108.408 112.471 107.078 103.092 111.207 100.297C129.672 87.7978 143.151 157.957 135.115 190.442C129.662 212.489 114.647 228.114 102.449 240.809L102.442 240.817C99.8274 243.537 97.3438 246.124 95.1107 248.608C80.2182 265.186 65.9407 281.078 67.3082 307.073C68.0169 320.526 77.1436 331.564 85.5704 341.756C96.0655 354.448 105.475 365.828 96.1885 378.925C79.4444 402.541 38.5037 362.799 26.3773 332.307C4.33706 276.888 -6.71513 227.175 4.33707 160.402ZM22.6296 229.54C19.9303 246.192 24.2431 264.365 29.0507 267.654C31.6502 269.433 38.3227 269.726 36.4105 255.534C35.6537 249.92 36.9267 244.296 38.0294 239.419C39.2641 233.963 40.2866 229.443 38.0143 226.928C34.6223 223.173 24.1139 220.383 22.6296 229.54Z" fill="white" fill-opacity="0.25"/>
</svg>
